<?xml version="1.0" standalone="no"?>
<!DOCTYPE svg PUBLIC "-//W3C//DTD SVG 20010904//EN"
 "http://www.w3.org/TR/2001/REC-SVG-20010904/DTD/svg10.dtd">
<svg version="1.0" xmlns="http://www.w3.org/2000/svg"
 width="512.000000pt" height="512.000000pt" viewBox="0 0 512.000000 512.000000"
 preserveAspectRatio="xMidYMid meet">
<metadata>
Created by potrace 1.14, written by Peter Selinger 2001-2017
</metadata>
<g transform="translate(0.000000,512.000000) scale(0.100000,-0.100000)"
fill="#000000" stroke="none">
<path d="M2500 4723 c0 -7 -9 -13 -21 -13 -26 0 -149 -49 -167 -67 -7 -7 -18
-13 -23 -13 -6 0 -36 -26 -68 -59 -58 -59 -88 -104 -221 -331 -40 -69 -92
-156 -115 -195 -23 -38 -102 -171 -175 -295 -73 -124 -167 -283 -210 -355
-386 -652 -481 -818 -474 -824 10 -9 307 -121 321 -121 4 0 22 23 38 52 17 29
42 73 58 98 15 25 30 53 33 63 4 9 10 17 15 17 5 0 9 4 9 9 0 8 231 400 650
1106 59 99 146 248 195 330 80 136 132 204 160 206 6 0 19 2 30 4 51 11 137
-44 170 -109 9 -17 24 -43 33 -58 9 -15 72 -121 140 -235 68 -115 127 -215
133 -223 36 -59 249 -423 249 -426 0 -2 20 -35 45 -74 25 -39 45 -72 45 -75 0
-3 12 -24 27 -48 15 -23 33 -51 39 -62 29 -52 54 -95 92 -158 23 -37 42 -72
42 -77 0 -49 78 66 134 196 21 49 46 103 54 121 13 26 14 36 3 59 -13 29 -199
346 -699 1189 -56 94 -119 189 -141 212 -56 58 -135 108 -206 129 -33 10 -63
23 -67 29 -5 6 -8 5 -8 -2 0 -7 -5 -13 -11 -13 -5 0 -7 5 -4 10 9 14 -8 12
-24 -2 -10 -9 -12 -9 -7 -1 4 8 -1 11 -14 10 -11 -1 -20 -6 -20 -12 0 -5 -5
-3 -10 5 -9 13 -10 13 -10 0 0 -13 -1 -13 -10 0 -6 10 -10 11 -10 3z"/>
<path d="M3902 2868 c-5 -7 -29 -56 -53 -108 -84 -187 -136 -265 -238 -350
-40 -33 -126 -60 -194 -60 -64 1 -104 10 -311 74 -148 45 -171 50 -271 49
-137 -2 -223 -40 -609 -270 -116 -69 -225 -132 -243 -140 -34 -14 -119 -18
-181 -9 -18 3 -52 8 -75 11 -23 4 -45 9 -49 12 -5 2 -21 7 -36 9 -15 3 -79 21
-142 40 -63 20 -122 37 -130 39 -8 2 -60 20 -115 39 -55 20 -107 38 -115 40
-8 3 -70 27 -138 54 l-123 50 -23 -37 c-12 -20 -76 -126 -141 -236 -65 -110
-173 -290 -238 -400 -152 -253 -208 -362 -229 -450 -17 -70 -22 -215 -8 -244
4 -9 17 -46 29 -83 54 -168 176 -302 344 -378 34 -15 80 -31 102 -35 22 -5 47
-10 55 -12 20 -4 161 -5 180 0 8 2 33 8 55 12 52 12 45 10 80 24 38 16 67 30
135 68 30 17 71 34 90 38 19 4 582 8 1250 7 1196 0 1216 0 1275 -20 33 -11 87
-37 119 -56 51 -30 111 -54 191 -73 46 -11 180 -9 233 3 31 8 66 16 77 18 46
9 166 80 224 133 60 54 118 131 153 203 20 42 49 140 41 140 -3 0 0 6 6 14 14
16 13 193 0 202 -5 3 -9 15 -9 27 0 12 -7 42 -15 65 -88 251 -319 422 -577
425 -27 0 -48 3 -48 6 0 4 24 17 53 31 65 31 134 93 153 139 30 70 20 98 -120
334 -10 18 -30 52 -44 77 -13 25 -30 52 -36 60 -7 8 -32 49 -56 90 -63 107
-141 239 -165 278 -6 9 -30 50 -54 90 -24 39 -44 72 -46 72 -1 0 -7 -6 -13
-12z"/>
</g>
</svg>
